HIERARCHY
ROOT pelvis
{
	OFFSET 0.000000 0.000000 0.000000
	CHANNELS 6 Xposition Yposition Zposition Xrotation Yrotation Zrotation
	JOINT l_hip
	{
		OFFSET 0.195211 -0.245059 -0.022011
		CHANNELS 3 Xrotation Yrotation Zrotation
		JOINT l_knee
		{
			OFFSET 0.083896 -0.996307 -0.018298
			CHANNELS 3 Xrotation Yrotation Zrotation
			JOINT l_ankle
			{
				OFFSET -0.031606 -1.048662 -0.119000
				CHANNELS 3 Xrotation Yrotation Zrotation
				JOINT l_foot
				{
					OFFSET 0.063841 -0.149483 0.312863
					CHANNELS 3 Xrotation Yrotation Zrotation
					End Site
					{
						OFFSET 0.000000 0.000000 0.000000
					}
				}
			}
		}
	}
	JOINT r_hip
	{
		OFFSET -0.188785 -0.243354 -0.013119
		CHANNELS 3 Xrotation Yrotation Zrotation
		JOINT r_knee
		{
			OFFSET -0.098896 -1.013926 -0.025127
			CHANNELS 3 Xrotation Yrotation Zrotation
			JOINT r_ankle
			{
				OFFSET 0.038376 -1.049454 -0.114596
				CHANNELS 3 Xrotation Yrotation Zrotation
				JOINT r_foot
				{
					OFFSET -0.060300 -0.126955 0.322518
					CHANNELS 3 Xrotation Yrotation Zrotation
					End Site
					{
						OFFSET 0.000000 0.000000 0.000000
					}
				}
			}
		}
	}
	JOINT spine1
	{
		OFFSET -0.006861 0.282462 -0.060688
		CHANNELS 3 Xrotation Yrotation Zrotation
		JOINT spine2
		{
			OFFSET 0.009796 0.349212 -0.004686
			CHANNELS 3 Xrotation Yrotation Zrotation
			JOINT spine3
			{
				OFFSET 0.005545 0.134239 0.076232
				CHANNELS 3 Xrotation Yrotation Zrotation
				JOINT neck
				{
					OFFSET -0.005369 0.569656 -0.136135
					CHANNELS 3 Xrotation Yrotation Zrotation
					JOINT head
					{
						OFFSET 0.009621 0.170484 0.137338
						CHANNELS 3 Xrotation Yrotation Zrotation
						End Site
						{
							OFFSET 0.000000 0.000000 0.000000
						}
					}
				}
				JOINT l_collar
				{
					OFFSET 0.205981 0.322192 -0.100872
					CHANNELS 3 Xrotation Yrotation Zrotation
					JOINT l_shoulder
					{
						OFFSET 0.233388 0.086823 -0.019950
						CHANNELS 3 Xrotation Yrotation Zrotation
						JOINT l_elbow
						{
							OFFSET 0.687295 -0.032736 -0.075278
							CHANNELS 3 Xrotation Yrotation Zrotation
							JOINT l_wrist
							{
								OFFSET 0.651109 0.024639 0.000120
								CHANNELS 3 Xrotation Yrotation Zrotation
								JOINT l_hand
								{
									OFFSET 0.217934 -0.026487 -0.036124
									CHANNELS 3 Xrotation Yrotation Zrotation
									End Site
									{
										OFFSET 0.000000 0.000000 0.000000
									}
								}
							}
						}
					}
				}
				JOINT r_collar
				{
					OFFSET -0.210726 0.316244 -0.114374
					CHANNELS 3 Xrotation Yrotation Zrotation
					JOINT r_shoulder
					{
						OFFSET -0.244017 0.089684 -0.026814
						CHANNELS 3 Xrotation Yrotation Zrotation
						JOINT r_elbow
						{
							OFFSET -0.672913 -0.035979 -0.055153
							CHANNELS 3 Xrotation Yrotation Zrotation
							JOINT r_wrist
							{
								OFFSET -0.670689 0.023586 -0.009661
								CHANNELS 3 Xrotation Yrotation Zrotation
								JOINT r_hand
								{
									OFFSET -0.219937 -0.019827 -0.028502
									CHANNELS 3 Xrotation Yrotation Zrotation
									End Site
									{
										OFFSET 0.000000 0.000000 0.000000
									}
								}
							}
						}
					}
				}
			}
		}
	}
}
MOTION
Frames: 15
Frame Time: 0.016667
0.000000 0.000000 0.000000 0.000000 0.000000 0.000000 3.884324 3.347099 5.243360 0.623138 -10.639323 -0.224393 0.000000 0.000000 0.000000 0.000000 0.000000 0.000000 -1.501326 -3.941075 -3.344401 14.358130 -2.045277 3.805505 0.000000 0.000000 0.000000 0.000000 0.000000 0.000000 9.452155 -0.829801 1.257594 0.399508 -1.416723 0.402577 0.587946 -2.516690 -1.236471 10.166461 -0.632408 1.849948 17.764875 -9.435506 -5.548899 4.763508 1.785003 -29.774484 0.413232 -13.074595 -46.619925 14.479651 -24.022268 7.900909 0.000000 0.000000 0.000000 0.000000 0.000000 0.000000 -2.482029 2.711116 31.712804 -2.840075 15.659989 40.885364 -11.312519 16.404755 -8.531171 0.000000 0.000000 0.000000 0.000000 0.000000 0.000000 
0.000000 0.000000 0.000000 0.000000 0.000000 0.000000 3.919266 3.304642 5.212008 0.789017 -10.661223 -0.252874 0.000000 0.000000 0.000000 0.000000 0.000000 0.000000 -1.271325 -3.993423 -3.380352 14.201237 -2.060635 3.796793 0.000000 0.000000 0.000000 0.000000 0.000000 0.000000 9.405411 -0.790878 1.286047 0.454168 -1.424894 0.382339 0.599163 -2.508716 -1.262349 10.149167 -0.737464 1.834685 17.651297 -9.428897 -5.500655 4.787717 1.740028 -29.816386 0.440779 -13.092392 -46.675772 14.607267 -24.004307 7.877797 0.000000 0.000000 0.000000 0.000000 0.000000 0.000000 -2.392717 2.731514 31.705249 -2.774650 15.488944 40.869998 -11.402116 16.169082 -8.475049 0.000000 0.000000 0.000000 0.000000 0.000000 0.000000 
0.000000 0.000000 0.000000 0.000000 0.000000 0.000000 3.731133 3.284510 5.175713 1.018823 -10.668583 -0.332299 0.000000 0.000000 0.000000 0.000000 0.000000 0.000000 -1.349583 -4.054344 -3.426638 14.335268 -2.227704 3.770935 0.000000 0.000000 0.000000 0.000000 0.000000 0.000000 9.653249 -0.767560 1.283731 0.393698 -1.431859 0.359554 0.567439 -2.534764 -1.270689 9.870932 -0.834311 1.820522 17.384437 -9.409773 -5.422126 4.748602 1.712754 -29.858913 0.385174 -13.129329 -46.720069 14.709413 -24.136240 7.963964 0.000000 0.000000 0.000000 0.000000 0.000000 0.000000 -2.357124 2.681815 31.685094 -2.740233 15.285687 40.945688 -11.592811 16.070242 -8.470634 0.000000 0.000000 0.000000 0.000000 0.000000 0.000000 
0.000000 0.000000 0.000000 0.000000 0.000000 0.000000 3.778329 3.296224 5.103459 1.126995 -10.692354 -0.329174 0.000000 0.000000 0.000000 0.000000 0.000000 0.000000 -1.235677 -4.114397 -3.417476 14.375475 -2.307722 3.646972 0.000000 0.000000 0.000000 0.000000 0.000000 0.000000 9.714287 -0.766240 1.297396 0.410365 -1.440001 0.331028 0.572444 -2.543932 -1.298206 9.755861 -0.917484 1.772489 17.200704 -9.384578 -5.393835 4.774603 1.753033 -29.890855 0.388145 -13.147356 -46.758459 14.893404 -24.233169 8.024159 0.000000 0.000000 0.000000 0.000000 0.000000 0.000000 -2.269064 2.610540 31.705477 -2.649431 15.081381 41.005283 -11.716131 15.814375 -8.469350 0.000000 0.000000 0.000000 0.000000 0.000000 0.000000 
0.000000 0.000000 0.000000 0.000000 0.000000 0.000000 3.722155 3.318982 5.088892 1.253544 -10.634925 -0.458771 0.000000 0.000000 0.000000 0.000000 0.000000 0.000000 -1.144441 -4.197097 -3.505366 14.388428 -2.368953 3.624923 0.000000 0.000000 0.000000 0.000000 0.000000 0.000000 9.806440 -0.743843 1.270057 0.431627 -1.454922 0.305997 0.569652 -2.537416 -1.320970 9.504435 -0.996788 1.726713 16.968676 -9.385354 -5.320895 4.830481 1.706811 -29.914708 0.363071 -13.136026 -46.796196 14.984687 -24.427809 8.069002 0.000000 0.000000 0.000000 0.000000 0.000000 0.000000 -2.129316 2.576089 31.739101 -2.525549 14.803964 41.100811 -11.822495 15.606073 -8.474710 0.000000 0.000000 0.000000 0.000000 0.000000 0.000000 
0.000000 0.000000 0.000000 0.000000 0.000000 0.000000 3.627567 3.318975 5.077722 1.481584 -10.609862 -0.602618 0.000000 0.000000 0.000000 0.000000 0.000000 0.000000 -1.048462 -4.291255 -3.584923 14.445216 -2.439283 3.600984 0.000000 0.000000 0.000000 0.000000 0.000000 0.000000 9.926368 -0.712013 1.259345 0.483363 -1.463100 0.282706 0.603271 -2.545919 -1.343085 9.311474 -1.142517 1.667661 16.746573 -9.403954 -5.234777 4.843976 1.661219 -29.911567 0.286414 -13.188151 -46.867704 15.154106 -24.738151 8.194593 0.000000 0.000000 0.000000 0.000000 0.000000 0.000000 -2.011834 2.573769 31.717309 -2.374228 14.535668 41.130778 -11.855285 15.314087 -8.358009 0.000000 0.000000 0.000000 0.000000 0.000000 0.000000 
0.000000 0.000000 0.000000 0.000000 0.000000 0.000000 3.632632 3.250048 4.990276 1.460402 -10.732353 -0.681165 0.000000 0.000000 0.000000 0.000000 0.000000 0.000000 -0.969214 -4.355412 -3.640742 14.507478 -2.561506 3.575629 0.000000 0.000000 0.000000 0.000000 0.000000 0.000000 10.051752 -0.715446 1.229197 0.470107 -1.504786 0.291708 0.597194 -2.589177 -1.339913 9.198437 -1.269291 1.628656 16.612485 -9.476566 -5.189349 4.879760 1.583637 -30.006655 0.239687 -13.259604 -46.875471 15.297454 -24.918336 8.223500 0.000000 0.000000 0.000000 0.000000 0.000000 0.000000 -1.899103 2.542047 31.847357 -2.173317 14.233448 41.068826 -11.965903 14.910154 -8.345623 0.000000 0.000000 0.000000 0.000000 0.000000 0.000000 
0.000000 0.000000 0.000000 0.000000 0.000000 0.000000 3.399462 3.089604 4.931532 1.757290 -10.853059 -0.740525 0.000000 0.000000 0.000000 0.000000 0.000000 0.000000 -1.084830 -4.354612 -3.697469 14.797063 -2.680223 3.508549 0.000000 0.000000 0.000000 0.000000 0.000000 0.000000 10.269913 -0.743336 1.213718 0.474644 -1.553415 0.304917 0.646281 -2.659108 -1.323070 8.865489 -1.414305 1.581165 16.390693 -9.507241 -5.085781 4.887774 1.501223 -29.983051 0.127165 -13.398131 -46.994123 15.406459 -25.236320 8.348603 0.000000 0.000000 0.000000 0.000000 0.000000 0.000000 -1.812828 2.532755 31.807460 -1.966184 13.980151 41.120128 -12.071009 14.604670 -8.259614 0.000000 0.000000 0.000000 0.000000 0.000000 0.000000 
0.000000 0.000000 0.000000 0.000000 0.000000 0.000000 3.206878 2.968784 4.885060 2.105634 -10.957085 -0.775418 0.000000 0.000000 0.000000 0.000000 0.000000 0.000000 -1.122177 -4.375633 -3.734112 14.988979 -2.744358 3.456915 0.000000 0.000000 0.000000 0.000000 0.000000 0.000000 10.364638 -0.760722 1.190021 0.481190 -1.599934 0.338741 0.719015 -2.712216 -1.297501 8.553274 -1.504720 1.533766 16.228650 -9.538847 -5.017147 4.925290 1.479302 -30.002974 0.061746 -13.509264 -47.078679 15.655342 -25.619628 8.538053 0.000000 0.000000 0.000000 0.000000 0.000000 0.000000 -1.688425 2.425977 31.899663 -1.714046 13.678197 41.186745 -12.067606 14.334101 -8.320613 0.000000 0.000000 0.000000 0.000000 0.000000 0.000000 
0.000000 0.000000 0.000000 0.000000 0.000000 0.000000 3.311936 3.015784 4.904395 2.067712 -11.034320 -0.912958 0.000000 0.000000 0.000000 0.000000 0.000000 0.000000 -0.934527 -4.491740 -3.769036 15.087816 -2.824490 3.443777 0.000000 0.000000 0.000000 0.000000 0.000000 0.000000 10.395359 -0.793616 1.124713 0.545739 -1.672534 0.366331 0.789093 -2.782894 -1.282512 8.364714 -1.581836 1.504923 16.035421 -9.566487 -4.967518 5.040641 1.475915 -30.034740 0.078865 -13.532059 -47.078743 16.033189 -25.987659 8.676306 0.000000 0.000000 0.000000 0.000000 0.000000 0.000000 -1.508441 2.344392 32.029644 -1.416224 13.356120 41.259605 -11.941728 14.013672 -8.293096 0.000000 0.000000 0.000000 0.000000 0.000000 0.000000 
0.000000 0.000000 0.000000 0.000000 0.000000 0.000000 3.425591 2.981882 4.861165 2.005184 -11.162655 -0.958408 0.000000 0.000000 0.000000 0.000000 0.000000 0.000000 -0.805363 -4.553392 -3.814530 15.171753 -2.902808 3.420372 0.000000 0.000000 0.000000 0.000000 0.000000 0.000000 10.434041 -0.850722 1.122894 0.542087 -1.712858 0.377388 0.842448 -2.836552 -1.286913 8.121919 -1.636094 1.481771 15.970104 -9.604398 -4.929505 5.148370 1.571403 -30.110512 0.092827 -13.559378 -47.096616 16.235311 -26.359325 8.835925 0.000000 0.000000 0.000000 0.000000 0.000000 0.000000 -1.348705 2.155257 32.165670 -1.065873 13.032097 41.301444 -11.943648 13.675505 -8.173262 0.000000 0.000000 0.000000 0.000000 0.000000 0.000000 
0.000000 0.000000 0.000000 0.000000 0.000000 0.000000 3.502444 3.029410 4.868737 1.978117 -11.178845 -1.011709 0.000000 0.000000 0.000000 0.000000 0.000000 0.000000 -0.690179 -4.611145 -3.800996 15.178255 -2.918279 3.356549 0.000000 0.000000 0.000000 0.000000 0.000000 0.000000 10.462131 -0.864085 1.085644 0.549564 -1.722163 0.408771 0.906820 -2.879516 -1.268684 7.866600 -1.676028 1.485700 15.850272 -9.624086 -4.872687 5.263381 1.717733 -30.174340 0.155254 -13.569071 -47.112960 16.597273 -26.752493 9.008157 0.000000 0.000000 0.000000 0.000000 0.000000 0.000000 -1.183718 1.930231 32.325546 -0.700898 12.715794 41.431611 -11.832220 13.368675 -8.081961 0.000000 0.000000 0.000000 0.000000 0.000000 0.000000 
0.000000 0.000000 0.000000 0.000000 0.000000 0.000000 3.627712 3.028995 4.867626 2.032098 -11.304480 -1.083858 0.000000 0.000000 0.000000 0.000000 0.000000 0.000000 -0.495993 -4.676205 -3.792867 15.143084 -3.037362 3.322374 0.000000 0.000000 0.000000 0.000000 0.000000 0.000000 10.517715 -0.884639 1.069941 0.578858 -1.769965 0.422115 0.943120 -2.929189 -1.253566 7.788158 -1.720837 1.376254 15.611354 -9.569158 -4.844261 5.386403 1.746845 -30.198694 0.183150 -13.564993 -47.164908 16.883532 -26.966762 9.162191 0.000000 0.000000 0.000000 0.000000 0.000000 0.000000 -0.989735 1.818724 32.415094 -0.447513 12.396456 41.635957 -11.785206 12.969389 -8.019521 0.000000 0.000000 0.000000 0.000000 0.000000 0.000000 
0.000000 0.000000 0.000000 0.000000 0.000000 0.000000 3.790921 3.018664 4.845422 2.040391 -11.434973 -1.104995 0.000000 0.000000 0.000000 0.000000 0.000000 0.000000 -0.400714 -4.667145 -3.797042 15.324468 -3.001293 3.277344 0.000000 0.000000 0.000000 0.000000 0.000000 0.000000 10.512104 -0.887037 1.010132 0.631558 -1.755427 0.444795 1.017644 -2.950717 -1.256706 7.781284 -1.717036 1.319748 15.522978 -9.581451 -4.840375 5.497769 1.841069 -30.325333 0.180808 -13.550713 -47.122115 17.009973 -27.221355 9.324361 0.000000 0.000000 0.000000 0.000000 0.000000 0.000000 -0.769941 1.655748 32.658974 -0.112018 12.095262 41.831381 -11.735517 12.715353 -8.026636 0.000000 0.000000 0.000000 0.000000 0.000000 0.000000 
0.000000 0.000000 0.000000 0.000000 0.000000 0.000000 3.860417 3.074979 4.896109 2.074813 -11.505162 -1.143173 0.000000 0.000000 0.000000 0.000000 0.000000 0.000000 -0.256876 -4.734783 -3.768028 15.305541 -3.010135 3.277619 0.000000 0.000000 0.000000 0.000000 0.000000 0.000000 10.507228 -0.929898 0.978372 0.600781 -1.803462 0.467076 1.075173 -3.018150 -1.230653 7.689585 -1.653995 1.273996 15.477235 -9.538153 -4.830568 5.590541 2.025851 -30.368421 0.223098 -13.527126 -47.174138 17.184856 -27.316651 9.367815 0.000000 0.000000 0.000000 0.000000 0.000000 0.000000 -0.578049 1.384014 32.821143 0.241187 11.838585 42.043338 -11.592202 12.448309 -7.911739 0.000000 0.000000 0.000000 0.000000 0.000000 0.000000 
